<mxfile host="Electron" agent="Mozilla/5.0 (Windows NT 10.0; Win64; x64) AppleWebKit/537.36 (KHTML, like Gecko) draw.io/24.7.17 Chrome/128.0.6613.36 Electron/32.0.1 Safari/537.36" version="24.7.17">
  <diagram name="Seite-1" id="t-iVVQY40joi7DxpQz23">
    <mxGraphModel dx="1235" dy="740" grid="1" gridSize="10" guides="1" tooltips="1" connect="1" arrows="1" fold="1" page="1" pageScale="1" pageWidth="1169" pageHeight="827" math="0" shadow="0">
      <root>
        <mxCell id="0" />
        <mxCell id="1" parent="0" />
        <mxCell id="RGadHn6oHt6VGz0RmvUf-23" value="" style="rounded=0;whiteSpace=wrap;html=1;fillColor=#dae8fc;strokeColor=#6c8ebf;" parent="1" vertex="1">
          <mxGeometry x="25" y="80" width="120" height="60" as="geometry" />
        </mxCell>
        <mxCell id="RGadHn6oHt6VGz0RmvUf-24" value="" style="rounded=0;whiteSpace=wrap;html=1;fillColor=#f8cecc;strokeColor=#b85450;" parent="1" vertex="1">
          <mxGeometry x="320" y="80" width="120" height="60" as="geometry" />
        </mxCell>
        <mxCell id="RGadHn6oHt6VGz0RmvUf-25" value="" style="endArrow=classic;html=1;rounded=0;exitX=1;exitY=0.5;exitDx=0;exitDy=0;entryX=0;entryY=0.5;entryDx=0;entryDy=0;" parent="1" source="RGadHn6oHt6VGz0RmvUf-23" target="RGadHn6oHt6VGz0RmvUf-24" edge="1">
          <mxGeometry width="50" height="50" relative="1" as="geometry">
            <mxPoint x="405" y="480" as="sourcePoint" />
            <mxPoint x="455" y="430" as="targetPoint" />
          </mxGeometry>
        </mxCell>
        <mxCell id="RGadHn6oHt6VGz0RmvUf-42" value="&lt;h1 style=&quot;margin-top: 0px;&quot;&gt;Event-Manager | Processes&lt;/h1&gt;" style="text;html=1;whiteSpace=wrap;overflow=hidden;rounded=0;align=center;" parent="1" vertex="1">
          <mxGeometry x="10" y="10" width="320" height="40" as="geometry" />
        </mxCell>
        <mxCell id="RGadHn6oHt6VGz0RmvUf-49" value="&lt;span style=&quot;font-size: 14px;&quot;&gt;User&lt;/span&gt;&lt;br&gt;&lt;div&gt;&lt;font style=&quot;font-size: 14px;&quot;&gt;Login&lt;/font&gt;&lt;/div&gt;" style="text;html=1;align=center;verticalAlign=middle;whiteSpace=wrap;rounded=0;" parent="1" vertex="1">
          <mxGeometry x="35" y="90" width="100" height="40" as="geometry" />
        </mxCell>
        <mxCell id="RGadHn6oHt6VGz0RmvUf-59" value="&lt;span style=&quot;font-size: 14px;&quot;&gt;All&lt;/span&gt;&lt;div&gt;&lt;span style=&quot;font-size: 14px;&quot;&gt;Events&lt;/span&gt;&lt;/div&gt;" style="text;html=1;align=center;verticalAlign=middle;whiteSpace=wrap;rounded=0;" parent="1" vertex="1">
          <mxGeometry x="330" y="90" width="100" height="40" as="geometry" />
        </mxCell>
        <mxCell id="RGadHn6oHt6VGz0RmvUf-61" value="" style="rounded=0;whiteSpace=wrap;html=1;fillColor=#f8cecc;strokeColor=#b85450;" parent="1" vertex="1">
          <mxGeometry x="590" y="80" width="120" height="60" as="geometry" />
        </mxCell>
        <mxCell id="RGadHn6oHt6VGz0RmvUf-63" value="&lt;span style=&quot;font-size: 14px;&quot;&gt;Event Details&lt;/span&gt;" style="text;html=1;align=center;verticalAlign=middle;whiteSpace=wrap;rounded=0;" parent="1" vertex="1">
          <mxGeometry x="600" y="90" width="100" height="40" as="geometry" />
        </mxCell>
        <mxCell id="RGadHn6oHt6VGz0RmvUf-71" value="" style="endArrow=classic;html=1;rounded=0;exitX=1;exitY=0.5;exitDx=0;exitDy=0;entryX=0;entryY=0;entryDx=0;entryDy=0;" parent="1" source="RGadHn6oHt6VGz0RmvUf-61" target="501pgxPSXT3x-87CW1MA-23" edge="1">
          <mxGeometry width="50" height="50" relative="1" as="geometry">
            <mxPoint x="700" y="100" as="sourcePoint" />
            <mxPoint x="740" y="100" as="targetPoint" />
          </mxGeometry>
        </mxCell>
        <mxCell id="RGadHn6oHt6VGz0RmvUf-73" value="" style="rounded=0;whiteSpace=wrap;html=1;fillColor=#ffe6cc;strokeColor=#d79b00;" parent="1" vertex="1">
          <mxGeometry x="915" y="500" width="120" height="60" as="geometry" />
        </mxCell>
        <mxCell id="RGadHn6oHt6VGz0RmvUf-75" value="&lt;span style=&quot;font-size: 14px;&quot;&gt;Notification with check&lt;/span&gt;" style="text;html=1;align=center;verticalAlign=middle;whiteSpace=wrap;rounded=0;" parent="1" vertex="1">
          <mxGeometry x="925" y="510" width="100" height="40" as="geometry" />
        </mxCell>
        <mxCell id="RGadHn6oHt6VGz0RmvUf-76" value="" style="rounded=0;whiteSpace=wrap;html=1;fillColor=#d5e8d4;strokeColor=#82b366;" parent="1" vertex="1">
          <mxGeometry x="915" y="560" width="120" height="60" as="geometry" />
        </mxCell>
        <mxCell id="RGadHn6oHt6VGz0RmvUf-78" value="&lt;span style=&quot;font-size: 14px;&quot;&gt;Ticket is marked as &quot;paid&quot;&lt;/span&gt;" style="text;html=1;align=center;verticalAlign=middle;whiteSpace=wrap;rounded=0;" parent="1" vertex="1">
          <mxGeometry x="925" y="570" width="100" height="40" as="geometry" />
        </mxCell>
        <mxCell id="501pgxPSXT3x-87CW1MA-1" value="" style="rounded=0;whiteSpace=wrap;html=1;fillColor=#dae8fc;strokeColor=#6c8ebf;" parent="1" vertex="1">
          <mxGeometry x="210" y="390" width="120" height="60" as="geometry" />
        </mxCell>
        <mxCell id="501pgxPSXT3x-87CW1MA-2" value="&lt;span style=&quot;font-size: 14px;&quot;&gt;&lt;b&gt;Service 01&lt;/b&gt;&lt;/span&gt;&lt;div&gt;&lt;span style=&quot;font-size: 14px;&quot;&gt;User Management&lt;/span&gt;&lt;/div&gt;" style="text;html=1;align=center;verticalAlign=middle;whiteSpace=wrap;rounded=0;" parent="1" vertex="1">
          <mxGeometry x="220" y="400" width="100" height="40" as="geometry" />
        </mxCell>
        <mxCell id="501pgxPSXT3x-87CW1MA-5" value="" style="rounded=0;whiteSpace=wrap;html=1;fillColor=#f8cecc;strokeColor=#b85450;" parent="1" vertex="1">
          <mxGeometry x="350" y="390" width="120" height="60" as="geometry" />
        </mxCell>
        <mxCell id="501pgxPSXT3x-87CW1MA-6" value="&lt;span style=&quot;font-size: 14px;&quot;&gt;&lt;b&gt;Service 02&lt;/b&gt;&lt;/span&gt;&lt;div&gt;&lt;span style=&quot;font-size: 14px;&quot;&gt;Events&lt;/span&gt;&lt;/div&gt;" style="text;html=1;align=center;verticalAlign=middle;whiteSpace=wrap;rounded=0;" parent="1" vertex="1">
          <mxGeometry x="360" y="400" width="100" height="40" as="geometry" />
        </mxCell>
        <mxCell id="501pgxPSXT3x-87CW1MA-7" value="" style="rounded=0;whiteSpace=wrap;html=1;fillColor=#d5e8d4;strokeColor=#82b366;" parent="1" vertex="1">
          <mxGeometry x="490" y="390" width="120" height="60" as="geometry" />
        </mxCell>
        <mxCell id="501pgxPSXT3x-87CW1MA-8" value="&lt;span style=&quot;font-size: 14px;&quot;&gt;&lt;b&gt;Service 03&lt;/b&gt;&lt;/span&gt;&lt;div&gt;&lt;span style=&quot;font-size: 14px; background-color: initial;&quot;&gt;Tickets&lt;/span&gt;&lt;/div&gt;" style="text;html=1;align=center;verticalAlign=middle;whiteSpace=wrap;rounded=0;" parent="1" vertex="1">
          <mxGeometry x="500" y="400" width="100" height="40" as="geometry" />
        </mxCell>
        <mxCell id="501pgxPSXT3x-87CW1MA-9" value="" style="rounded=0;whiteSpace=wrap;html=1;fillColor=#e1d5e7;strokeColor=#9673a6;" parent="1" vertex="1">
          <mxGeometry x="210" y="460" width="120" height="60" as="geometry" />
        </mxCell>
        <mxCell id="501pgxPSXT3x-87CW1MA-10" value="&lt;div&gt;&lt;span style=&quot;font-size: 14px;&quot;&gt;&lt;b&gt;Service 04&lt;/b&gt;&lt;/span&gt;&lt;/div&gt;&lt;span style=&quot;font-size: 14px;&quot;&gt;Payment&lt;/span&gt;" style="text;html=1;align=center;verticalAlign=middle;whiteSpace=wrap;rounded=0;" parent="1" vertex="1">
          <mxGeometry x="220" y="470" width="100" height="40" as="geometry" />
        </mxCell>
        <mxCell id="501pgxPSXT3x-87CW1MA-11" value="" style="rounded=0;whiteSpace=wrap;html=1;fillColor=#ffe6cc;strokeColor=#d79b00;" parent="1" vertex="1">
          <mxGeometry x="350" y="460" width="120" height="60" as="geometry" />
        </mxCell>
        <mxCell id="501pgxPSXT3x-87CW1MA-12" value="&lt;span style=&quot;font-size: 14px;&quot;&gt;&lt;b&gt;Service 05&lt;/b&gt;&lt;/span&gt;&lt;div&gt;&lt;span style=&quot;font-size: 14px;&quot;&gt;Notifcations&lt;/span&gt;&lt;/div&gt;" style="text;html=1;align=center;verticalAlign=middle;whiteSpace=wrap;rounded=0;" parent="1" vertex="1">
          <mxGeometry x="360" y="470" width="100" height="40" as="geometry" />
        </mxCell>
        <mxCell id="501pgxPSXT3x-87CW1MA-13" value="" style="rounded=0;whiteSpace=wrap;html=1;fillColor=#99FFFF;strokeColor=#6c8ebf;" parent="1" vertex="1">
          <mxGeometry x="490" y="460" width="120" height="60" as="geometry" />
        </mxCell>
        <mxCell id="501pgxPSXT3x-87CW1MA-14" value="&lt;span style=&quot;font-size: 14px;&quot;&gt;&lt;b&gt;Service 06&lt;/b&gt;&lt;/span&gt;&lt;div&gt;&lt;span style=&quot;font-size: 14px;&quot;&gt;Reviews&lt;/span&gt;&lt;/div&gt;" style="text;html=1;align=center;verticalAlign=middle;whiteSpace=wrap;rounded=0;" parent="1" vertex="1">
          <mxGeometry x="500" y="470" width="100" height="40" as="geometry" />
        </mxCell>
        <mxCell id="501pgxPSXT3x-87CW1MA-15" value="" style="rounded=0;whiteSpace=wrap;html=1;fillColor=#d5e8d4;strokeColor=#82b366;" parent="1" vertex="1">
          <mxGeometry x="915" y="50" width="120" height="60" as="geometry" />
        </mxCell>
        <mxCell id="501pgxPSXT3x-87CW1MA-16" value="&lt;span style=&quot;font-size: 14px;&quot;&gt;Ticket&lt;/span&gt;&lt;div&gt;&lt;span style=&quot;font-size: 14px;&quot;&gt;Selection&lt;/span&gt;&lt;/div&gt;" style="text;html=1;align=center;verticalAlign=middle;whiteSpace=wrap;rounded=0;" parent="1" vertex="1">
          <mxGeometry x="925" y="60" width="100" height="40" as="geometry" />
        </mxCell>
        <mxCell id="501pgxPSXT3x-87CW1MA-17" value="" style="rounded=0;whiteSpace=wrap;html=1;fillColor=#e1d5e7;strokeColor=#9673a6;" parent="1" vertex="1">
          <mxGeometry x="915" y="270" width="120" height="60" as="geometry" />
        </mxCell>
        <mxCell id="501pgxPSXT3x-87CW1MA-18" value="&lt;div&gt;&lt;span style=&quot;font-size: 14px;&quot;&gt;Ticket&lt;/span&gt;&lt;/div&gt;&lt;span style=&quot;font-size: 14px;&quot;&gt;Payment&lt;/span&gt;" style="text;html=1;align=center;verticalAlign=middle;whiteSpace=wrap;rounded=0;" parent="1" vertex="1">
          <mxGeometry x="925" y="280" width="100" height="40" as="geometry" />
        </mxCell>
        <mxCell id="501pgxPSXT3x-87CW1MA-23" value="" style="rounded=0;whiteSpace=wrap;html=1;fillColor=#d5e8d4;strokeColor=#82b366;" parent="1" vertex="1">
          <mxGeometry x="915" y="110" width="120" height="60" as="geometry" />
        </mxCell>
        <mxCell id="501pgxPSXT3x-87CW1MA-24" value="&lt;span style=&quot;font-size: 14px;&quot;&gt;Ticket Allocation&lt;/span&gt;" style="text;html=1;align=center;verticalAlign=middle;whiteSpace=wrap;rounded=0;" parent="1" vertex="1">
          <mxGeometry x="925" y="120" width="100" height="40" as="geometry" />
        </mxCell>
        <mxCell id="501pgxPSXT3x-87CW1MA-26" value="" style="endArrow=classic;html=1;rounded=0;exitX=0.5;exitY=1;exitDx=0;exitDy=0;entryX=0.5;entryY=0;entryDx=0;entryDy=0;" parent="1" source="501pgxPSXT3x-87CW1MA-23" target="501pgxPSXT3x-87CW1MA-17" edge="1">
          <mxGeometry width="50" height="50" relative="1" as="geometry">
            <mxPoint x="820" y="290" as="sourcePoint" />
            <mxPoint x="750" y="270" as="targetPoint" />
          </mxGeometry>
        </mxCell>
        <mxCell id="501pgxPSXT3x-87CW1MA-29" value="" style="rounded=0;whiteSpace=wrap;html=1;fillColor=#e1d5e7;strokeColor=#9673a6;" parent="1" vertex="1">
          <mxGeometry x="915" y="330" width="120" height="60" as="geometry" />
        </mxCell>
        <mxCell id="501pgxPSXT3x-87CW1MA-30" value="&lt;div&gt;&lt;span style=&quot;font-size: 14px;&quot;&gt;Validation&lt;/span&gt;&lt;/div&gt;" style="text;html=1;align=center;verticalAlign=middle;whiteSpace=wrap;rounded=0;" parent="1" vertex="1">
          <mxGeometry x="925" y="340" width="100" height="40" as="geometry" />
        </mxCell>
        <mxCell id="501pgxPSXT3x-87CW1MA-31" value="" style="rounded=0;whiteSpace=wrap;html=1;fillColor=#99FFFF;strokeColor=#6c8ebf;" parent="1" vertex="1">
          <mxGeometry x="590" y="250" width="120" height="60" as="geometry" />
        </mxCell>
        <mxCell id="501pgxPSXT3x-87CW1MA-32" value="&lt;span style=&quot;font-size: 14px;&quot;&gt;Feedback&lt;/span&gt;&lt;div&gt;&lt;span style=&quot;font-size: 14px;&quot;&gt;Section&lt;/span&gt;&lt;/div&gt;" style="text;html=1;align=center;verticalAlign=middle;whiteSpace=wrap;rounded=0;" parent="1" vertex="1">
          <mxGeometry x="600" y="260" width="100" height="40" as="geometry" />
        </mxCell>
        <mxCell id="501pgxPSXT3x-87CW1MA-34" value="" style="endArrow=classic;html=1;rounded=0;exitX=0.5;exitY=1;exitDx=0;exitDy=0;entryX=0.5;entryY=0;entryDx=0;entryDy=0;" parent="1" source="501pgxPSXT3x-87CW1MA-29" target="RGadHn6oHt6VGz0RmvUf-73" edge="1">
          <mxGeometry width="50" height="50" relative="1" as="geometry">
            <mxPoint x="760" y="300" as="sourcePoint" />
            <mxPoint x="1200" y="290" as="targetPoint" />
          </mxGeometry>
        </mxCell>
        <mxCell id="vPkEhAFzBSYxz3017Qw1-1" value="User Validation with Token (request to User Management)&lt;div&gt;&lt;br&gt;&lt;/div&gt;&lt;div&gt;&lt;b&gt;GET&lt;/b&gt; /verify_token&lt;/div&gt;&lt;div&gt;&lt;b&gt;GET &lt;/b&gt;/user_info&lt;/div&gt;" style="text;html=1;align=center;verticalAlign=middle;whiteSpace=wrap;rounded=0;" parent="1" vertex="1">
          <mxGeometry x="130" y="140" width="175" height="70" as="geometry" />
        </mxCell>
        <mxCell id="vPkEhAFzBSYxz3017Qw1-2" value="" style="endArrow=classic;html=1;rounded=0;exitX=1;exitY=0.5;exitDx=0;exitDy=0;entryX=0;entryY=0.5;entryDx=0;entryDy=0;" parent="1" source="RGadHn6oHt6VGz0RmvUf-24" target="RGadHn6oHt6VGz0RmvUf-61" edge="1">
          <mxGeometry width="50" height="50" relative="1" as="geometry">
            <mxPoint x="155" y="120" as="sourcePoint" />
            <mxPoint x="265" y="120" as="targetPoint" />
          </mxGeometry>
        </mxCell>
        <mxCell id="vPkEhAFzBSYxz3017Qw1-4" value="&lt;div&gt;Show details of an event&lt;/div&gt;&lt;div&gt;&lt;br&gt;&lt;/div&gt;&lt;div&gt;&lt;b&gt;GET &lt;/b&gt;/event/&amp;lt;event-id&amp;gt;&lt;/div&gt;" style="text;html=1;align=center;verticalAlign=middle;whiteSpace=wrap;rounded=0;" parent="1" vertex="1">
          <mxGeometry x="460" y="130" width="110" height="70" as="geometry" />
        </mxCell>
        <mxCell id="wTtHQ01_Qizt3heykeez-1" value="" style="endArrow=classic;html=1;rounded=0;exitX=0.5;exitY=1;exitDx=0;exitDy=0;entryX=0.5;entryY=0;entryDx=0;entryDy=0;" parent="1" source="RGadHn6oHt6VGz0RmvUf-61" target="501pgxPSXT3x-87CW1MA-31" edge="1">
          <mxGeometry width="50" height="50" relative="1" as="geometry">
            <mxPoint x="525" y="320" as="sourcePoint" />
            <mxPoint x="575" y="270" as="targetPoint" />
          </mxGeometry>
        </mxCell>
        <mxCell id="wTtHQ01_Qizt3heykeez-3" value="&lt;div&gt;Ticket for Event (Request to Event Management)&lt;/div&gt;&lt;div&gt;&lt;br&gt;&lt;/div&gt;&lt;div&gt;&lt;b&gt;GET &lt;/b&gt;/event/&amp;lt;event-id&amp;gt;&lt;/div&gt;&lt;div&gt;&lt;b style=&quot;background-color: initial;&quot;&gt;GET&amp;nbsp;&lt;/b&gt;&lt;span style=&quot;background-color: initial;&quot;&gt;/event/available_tickets/&amp;lt;event-id&amp;gt;&lt;/span&gt;&lt;br&gt;&lt;/div&gt;" style="text;html=1;align=center;verticalAlign=middle;whiteSpace=wrap;rounded=0;" parent="1" vertex="1">
          <mxGeometry x="740" y="130" width="150" height="80" as="geometry" />
        </mxCell>
        <mxCell id="wTtHQ01_Qizt3heykeez-4" value="&lt;div&gt;Buy Ticket (Request to Ticket Management)&lt;/div&gt;&lt;div&gt;&lt;b style=&quot;background-color: initial;&quot;&gt;&lt;br&gt;&lt;/b&gt;&lt;/div&gt;&lt;div&gt;&lt;b style=&quot;background-color: initial;&quot;&gt;GET &lt;/b&gt;&lt;span style=&quot;background-color: initial;&quot;&gt;/tickets/&amp;lt;ticket-id&amp;gt;&lt;/span&gt;&lt;br&gt;&lt;/div&gt;" style="text;html=1;align=center;verticalAlign=middle;whiteSpace=wrap;rounded=0;" parent="1" vertex="1">
          <mxGeometry x="990" y="180" width="140" height="80" as="geometry" />
        </mxCell>
        <mxCell id="wTtHQ01_Qizt3heykeez-5" value="&lt;div&gt;Information if the payment was valid (Request to Payment Management)&lt;/div&gt;" style="text;html=1;align=center;verticalAlign=middle;whiteSpace=wrap;rounded=0;" parent="1" vertex="1">
          <mxGeometry x="750" y="560" width="150" height="60" as="geometry" />
        </mxCell>
        <mxCell id="wTtHQ01_Qizt3heykeez-6" value="&lt;div&gt;Creates the ticket &lt;br&gt;&lt;/div&gt;&lt;div&gt;&lt;br&gt;&lt;/div&gt;&lt;div&gt;&lt;b&gt;POST &lt;/b&gt;/tickets/&lt;br&gt;&lt;/div&gt;" style="text;html=1;align=center;verticalAlign=middle;whiteSpace=wrap;rounded=0;" parent="1" vertex="1">
          <mxGeometry x="900" y="10" width="150" height="40" as="geometry" />
        </mxCell>
        <mxCell id="wTtHQ01_Qizt3heykeez-7" value="&lt;div&gt;Update the state of the ticket&lt;/div&gt;&lt;div&gt;&lt;br&gt;&lt;/div&gt;&lt;div&gt;&lt;b&gt;PUT &lt;/b&gt;/tickets/&amp;lt;ticket-id&amp;gt;&lt;br&gt;&lt;/div&gt;" style="text;html=1;align=center;verticalAlign=middle;whiteSpace=wrap;rounded=0;" parent="1" vertex="1">
          <mxGeometry x="990" y="400" width="120" height="80" as="geometry" />
        </mxCell>
        <mxCell id="wTtHQ01_Qizt3heykeez-8" value="Creates a Notification for the user" style="text;html=1;align=center;verticalAlign=middle;whiteSpace=wrap;rounded=0;" parent="1" vertex="1">
          <mxGeometry x="765" y="515" width="120" height="30" as="geometry" />
        </mxCell>
        <mxCell id="wTtHQ01_Qizt3heykeez-10" value="Shows and creates feedbacks for an event" style="text;html=1;align=center;verticalAlign=middle;whiteSpace=wrap;rounded=0;" parent="1" vertex="1">
          <mxGeometry x="440" y="250" width="150" height="60" as="geometry" />
        </mxCell>
      </root>
    </mxGraphModel>
  </diagram>
</mxfile>
